<svg width="176" height="45" viewBox="0 0 176 45" fill="none" xmlns="http://www.w3.org/2000/svg">
<path d="M14.4 33.848C14.176 34.616 13.76 35.128 13.152 35.384C12.544 35.64 11.904 35.672 11.232 35.48C10.592 35.32 10.064 34.984 9.648 34.472C9.264 33.928 9.184 33.256 9.408 32.456C8.832 33.416 8.256 33.944 7.68 34.04C7.104 34.104 6.72 33.864 6.528 33.32C6.336 32.744 6.528 31.992 7.104 31.064C6.528 31.48 5.92 31.56 5.28 31.304C4.672 31.016 4.16 30.568 3.744 29.96C3.328 29.32 3.104 28.664 3.072 27.992C3.04 27.32 3.312 26.776 3.888 26.36C2.864 26.648 2.128 26.68 1.68 26.456C1.264 26.232 1.184 25.928 1.44 25.544C1.728 25.128 2.4 24.792 3.456 24.536C2.592 24.568 1.936 24.376 1.488 23.96C1.04 23.544 0.784001 23.048 0.720001 22.472C0.688001 21.864 0.864001 21.32 1.248 20.84C1.664 20.36 2.304 20.088 3.168 20.024C2.432 20.024 1.872 19.72 1.488 19.112C1.136 18.472 0.960001 17.768 0.960001 17C0.960001 16.2 1.152 15.496 1.536 14.888C1.92 14.28 2.48 13.976 3.216 13.976C2.704 13.784 2.368 13.4 2.208 12.824C2.08 12.248 2.08 11.608 2.208 10.904C2.336 10.168 2.576 9.47998 2.928 8.83998C3.28 8.16798 3.68 7.65597 4.128 7.30397C4.608 6.91997 5.104 6.82397 5.616 7.01597C5.168 6.40797 5.04 5.79997 5.232 5.19197C5.424 4.58397 5.792 4.07197 6.336 3.65597C6.88 3.23997 7.472 3.03198 8.112 3.03198C8.752 2.99997 9.296 3.28797 9.744 3.89598C9.616 3.22397 9.728 2.64797 10.08 2.16797C10.464 1.65597 10.976 1.27197 11.616 1.01598C12.256 0.727975 12.928 0.583975 13.632 0.583975C14.336 0.551974 14.944 0.679973 15.456 0.967973C16 1.25597 16.352 1.73597 16.512 2.40797C16.544 1.60797 16.832 1.01597 17.376 0.631975C17.92 0.247974 18.528 0.0719734 19.2 0.103973C19.904 0.135974 20.512 0.375975 21.024 0.823975C21.536 1.23997 21.776 1.84797 21.744 2.64797C22 1.94397 22.448 1.47997 23.088 1.25598C23.728 0.999975 24.416 0.935975 25.152 1.06397C25.92 1.19198 26.608 1.46397 27.216 1.87997C27.856 2.26397 28.32 2.75997 28.608 3.36797C28.928 3.97597 28.96 4.63197 28.704 5.33597C29.216 4.85597 29.728 4.63197 30.24 4.66397C30.752 4.69597 31.168 4.88797 31.488 5.23998C31.84 5.59197 32 6.02397 31.968 6.53597C31.968 7.04797 31.696 7.54397 31.152 8.02397C31.856 7.83197 32.448 7.92797 32.928 8.31197C33.44 8.69597 33.792 9.20797 33.984 9.84797C34.176 10.456 34.16 11.048 33.936 11.624C33.744 12.2 33.296 12.6 32.592 12.824C32.592 13.88 32.448 14.584 32.16 14.936C31.872 15.288 31.584 15.288 31.296 14.936C31.008 14.584 30.864 13.88 30.864 12.824C30.864 13.4 30.624 13.864 30.144 14.216C29.696 14.568 29.12 14.808 28.416 14.936C27.744 15.032 27.056 15.032 26.352 14.936C25.68 14.808 25.104 14.568 24.624 14.216C24.176 13.864 23.952 13.4 23.952 12.824C23.312 13.496 22.736 13.8 22.224 13.736C21.712 13.64 21.408 13.336 21.312 12.824C21.248 12.312 21.536 11.736 22.176 11.096C21.44 11.928 20.752 12.328 20.112 12.296C19.504 12.232 19.152 11.912 19.056 11.336C18.768 11.656 18.496 11.688 18.24 11.432C17.952 12.04 17.504 12.584 16.896 13.064C16.32 13.512 15.696 13.784 15.024 13.88C15.568 14.392 15.632 14.968 15.216 15.608C14.832 16.248 14.016 16.536 12.768 16.472C13.856 16.504 14.576 16.68 14.928 17C15.28 17.32 15.28 17.64 14.928 17.96C14.576 18.28 13.856 18.44 12.768 18.44C13.792 18.408 14.528 18.584 14.976 18.968C15.424 19.32 15.568 19.72 15.408 20.168C15.248 20.616 14.784 20.952 14.016 21.176C14.784 21.272 15.408 21.72 15.888 22.52C16.4 23.32 16.624 24.104 16.56 24.872C16.752 24.84 16.912 24.92 17.04 25.112C17.392 24.472 17.92 23.992 18.624 23.672C19.36 23.32 20.08 23.208 20.784 23.336C21.52 23.464 22.096 23.912 22.512 24.68C22.352 24.008 22.448 23.448 22.8 23C23.184 22.552 23.664 22.264 24.24 22.136C24.848 21.976 25.424 22.008 25.968 22.232C26.512 22.456 26.864 22.904 27.024 23.576C27.024 22.648 27.264 21.944 27.744 21.464C28.224 20.984 28.784 20.744 29.424 20.744C30.064 20.744 30.624 20.984 31.104 21.464C31.584 21.944 31.824 22.648 31.824 23.576C32.72 23.48 33.344 23.656 33.696 24.104C34.048 24.552 34.096 25.032 33.84 25.544C33.584 26.024 32.992 26.296 32.064 26.36C32.704 26.776 33.04 27.288 33.072 27.896C33.136 28.472 32.992 29.032 32.64 29.576C32.288 30.088 31.824 30.456 31.248 30.68C30.704 30.872 30.128 30.76 29.52 30.344C29.84 30.984 29.808 31.624 29.424 32.264C29.04 32.872 28.48 33.368 27.744 33.752C27.008 34.136 26.272 34.312 25.536 34.28C24.8 34.248 24.272 33.912 23.952 33.272C24.144 34.232 24.096 34.904 23.808 35.288C23.552 35.672 23.216 35.736 22.8 35.48C22.384 35.256 22.08 34.68 21.888 33.752C21.952 34.872 21.616 35.64 20.88 36.056C20.144 36.472 19.184 36.504 18 36.152C16.848 35.8 15.648 35.032 14.4 33.848Z" fill="#00D649"/>
<path d="M38.4671 34.088C37.6671 34.056 37.1391 33.8 36.8831 33.32C36.6271 32.808 36.6431 32.328 36.9311 31.88C37.2191 31.4 37.7631 31.176 38.5631 31.208C37.7631 31.208 37.2191 31.016 36.9311 30.632C36.6751 30.248 36.6751 29.864 36.9311 29.48C37.2191 29.096 37.7631 28.904 38.5631 28.904C37.9871 28.904 37.5391 28.68 37.2191 28.232C36.9311 27.784 36.7871 27.272 36.7871 26.696C36.7871 26.12 36.9311 25.608 37.2191 25.16C37.5391 24.712 37.9871 24.488 38.5631 24.488C37.9871 24.488 37.5391 24.344 37.2191 24.056C36.9311 23.736 36.7871 23.368 36.7871 22.952C36.7871 22.536 36.9311 22.184 37.2191 21.896C37.5391 21.576 37.9871 21.416 38.5631 21.416C38.1471 21.416 37.8111 21.176 37.5551 20.696C37.3311 20.216 37.1711 19.624 37.0751 18.92C37.0111 18.216 37.0111 17.512 37.0751 16.808C37.1711 16.104 37.3311 15.512 37.5551 15.032C37.8111 14.552 38.1471 14.312 38.5631 14.312C37.9551 14.312 37.4911 14.12 37.1711 13.736C36.8511 13.352 36.6911 12.904 36.6911 12.392C36.6911 11.88 36.8511 11.432 37.1711 11.048C37.4911 10.664 37.9551 10.472 38.5631 10.472C37.8911 10.472 37.3791 10.248 37.0271 9.79998C36.7071 9.35198 36.5471 8.83997 36.5471 8.26397C36.5471 7.68797 36.7071 7.17597 37.0271 6.72797C37.3791 6.27997 37.8911 6.05597 38.5631 6.05597C37.6671 6.05597 37.0591 5.83197 36.7391 5.38397C36.4511 4.93597 36.4511 4.48797 36.7391 4.03997C37.0591 3.59197 37.6671 3.36797 38.5631 3.36797C38.4351 2.88797 38.5471 2.47197 38.8991 2.11997C39.2831 1.76797 39.7471 1.51197 40.2911 1.35197C40.8671 1.15997 41.3951 1.12797 41.8751 1.25598C42.3871 1.35197 42.7231 1.63997 42.8831 2.11997C42.8831 1.54397 43.0911 1.11198 43.5071 0.823975C43.9551 0.503974 44.4671 0.343973 45.0431 0.343973C45.6191 0.343973 46.1311 0.503974 46.5791 0.823975C47.0271 1.11198 47.2511 1.54397 47.2511 2.11997C47.7311 2.05597 48.1311 2.29597 48.4511 2.83997C48.7711 3.35197 48.9791 3.97597 49.0751 4.71197C49.2031 5.44797 49.1871 6.11997 49.0271 6.72797C48.8991 7.33597 48.5951 7.67197 48.1151 7.73598C48.8831 7.60798 49.4751 7.86397 49.8911 8.50397C50.3391 9.11197 50.5791 9.79998 50.6111 10.568C51.0911 10.44 51.5551 10.44 52.0031 10.568C52.4831 10.664 52.8031 10.968 52.9631 11.48C52.8991 10.968 53.0911 10.552 53.5391 10.232C53.9871 9.91197 54.5151 9.71998 55.1231 9.65598C55.7631 9.55998 56.3231 9.60798 56.8031 9.79998C57.3151 9.99197 57.6191 10.328 57.7151 10.808C57.9071 10.04 58.2271 9.59198 58.6751 9.46398C59.1551 9.30398 59.5551 9.39998 59.8751 9.75198C60.2271 10.104 60.3071 10.664 60.1151 11.432C60.4991 11.048 60.9471 10.904 61.4591 11C62.0031 11.096 62.4991 11.352 62.9471 11.768C63.3951 12.152 63.6831 12.6 63.8111 13.112C63.9711 13.624 63.8751 14.088 63.5231 14.504C64.1631 14.312 64.6911 14.36 65.1071 14.648C65.5551 14.936 65.8591 15.352 66.0191 15.896C66.2111 16.44 66.2111 16.968 66.0191 17.48C65.8591 17.96 65.4591 18.312 64.8191 18.536C65.4271 18.504 65.8911 18.808 66.2111 19.448C66.5311 20.056 66.6911 20.776 66.6911 21.608C66.7231 22.408 66.5951 23.128 66.3071 23.768C66.0191 24.376 65.5711 24.68 64.9631 24.68C65.5071 24.68 65.9071 24.968 66.1631 25.544C66.4191 26.088 66.5471 26.728 66.5471 27.464C66.5471 28.2 66.4191 28.856 66.1631 29.432C65.9071 29.976 65.5071 30.248 64.9631 30.248C65.7631 30.248 66.2911 30.472 66.5471 30.92C66.8351 31.368 66.8351 31.816 66.5471 32.264C66.2911 32.712 65.7631 32.936 64.9631 32.936C65.0911 33.608 64.9151 34.168 64.4351 34.616C63.9871 35.032 63.4271 35.288 62.7551 35.384C62.0831 35.512 61.4591 35.448 60.8831 35.192C60.3391 34.936 60.0031 34.472 59.8751 33.8C59.7151 34.344 59.3631 34.68 58.8191 34.808C58.2751 34.904 57.6991 34.856 57.0911 34.664C56.5151 34.472 56.0351 34.184 55.6511 33.8C55.2991 33.384 55.2031 32.904 55.3631 32.36C54.8191 32.36 54.4031 32.152 54.1151 31.736C53.8591 31.288 53.7311 30.776 53.7311 30.2C53.7311 29.624 53.8591 29.112 54.1151 28.664C54.4031 28.216 54.8191 27.992 55.3631 27.992C54.9471 27.992 54.6111 27.704 54.3551 27.128C54.0991 26.552 53.9391 25.864 53.8751 25.064C53.8431 24.232 53.8911 23.448 54.0191 22.712C54.1791 21.976 54.4191 21.432 54.7391 21.08C54.1631 21.176 53.5711 20.968 52.9631 20.456C52.3551 19.912 51.9551 19.32 51.7631 18.68C51.2831 19.128 50.7231 19.304 50.0831 19.208C50.2431 19.56 50.1791 19.896 49.8911 20.216C49.6031 20.536 49.1711 20.632 48.5951 20.504C49.0111 20.728 49.3151 21.192 49.5071 21.896C49.6991 22.568 49.7631 23.304 49.6991 24.104C49.6671 24.904 49.5071 25.608 49.2191 26.216C48.9631 26.792 48.5951 27.08 48.1151 27.08C48.5631 27.08 48.8991 27.304 49.1231 27.752C49.3471 28.168 49.4591 28.664 49.4591 29.24C49.4591 29.816 49.3471 30.328 49.1231 30.776C48.8991 31.224 48.5631 31.448 48.1151 31.448C48.6911 31.416 49.0751 31.624 49.2671 32.072C49.4591 32.488 49.4751 32.92 49.3151 33.368C49.1551 33.816 48.7871 34.056 48.2111 34.088C48.1791 34.696 47.8431 35.128 47.2031 35.384C46.5631 35.672 45.8271 35.784 44.9951 35.72C44.1631 35.688 43.4271 35.512 42.7871 35.192C42.1791 34.872 41.8911 34.408 41.9231 33.8C41.9231 34.472 41.7471 34.968 41.3951 35.288C41.0751 35.64 40.6911 35.816 40.2431 35.816C39.8271 35.848 39.4431 35.72 39.0911 35.432C38.7391 35.144 38.5311 34.696 38.4671 34.088Z" fill="#00D649"/>
<path d="M80.4465 34.136C80.2545 34.808 79.9025 35.24 79.3905 35.432C78.8785 35.656 78.3345 35.688 77.7585 35.528C77.2145 35.4 76.7665 35.112 76.4145 34.664C76.0625 34.216 75.9825 33.656 76.1745 32.984C75.8225 33.464 75.4065 33.736 74.9265 33.8C74.4465 33.832 73.9985 33.704 73.5825 33.416C73.1985 33.128 72.9425 32.76 72.8145 32.312C72.7185 31.832 72.8625 31.336 73.2465 30.824C72.7665 31.048 72.2865 30.952 71.8065 30.536C71.3265 30.088 70.9265 29.512 70.6065 28.808C70.2865 28.072 70.1265 27.384 70.1265 26.744C70.1265 26.104 70.3665 25.672 70.8465 25.448C70.2705 25.448 69.8385 25.176 69.5505 24.632C69.2625 24.088 69.1185 23.448 69.1185 22.712C69.1185 21.976 69.2625 21.336 69.5505 20.792C69.8385 20.248 70.2545 19.976 70.7985 19.976C69.9345 19.72 69.4225 19.336 69.2625 18.824C69.1025 18.312 69.2145 17.88 69.5985 17.528C70.0145 17.176 70.6545 17.128 71.5185 17.384C71.2305 17.128 71.1345 16.76 71.2305 16.28C71.3585 15.768 71.6145 15.24 71.9985 14.696C72.3825 14.152 72.8145 13.672 73.2945 13.256C73.7745 12.808 74.2385 12.488 74.6865 12.296C75.1665 12.104 75.5505 12.136 75.8385 12.392C75.6785 11.848 75.8225 11.368 76.2705 10.952C76.7505 10.536 77.3425 10.232 78.0465 10.04C78.7505 9.81597 79.4065 9.76798 80.0145 9.89598C80.6225 9.99197 81.0065 10.312 81.1665 10.856C81.1985 10.248 81.5505 9.83197 82.2225 9.60797C82.9265 9.35198 83.6945 9.25598 84.5265 9.31998C85.3905 9.38398 86.1425 9.59198 86.7825 9.94398C87.4225 10.296 87.7105 10.776 87.6465 11.384C87.9025 10.776 88.2545 10.456 88.7025 10.424C89.1825 10.36 89.5665 10.504 89.8545 10.856C90.1745 11.208 90.2225 11.688 89.9985 12.296C90.3505 11.944 90.8145 11.896 91.3905 12.152C91.9985 12.376 92.5745 12.76 93.1185 13.304C93.6945 13.848 94.0945 14.424 94.3185 15.032C94.5745 15.64 94.5265 16.12 94.1745 16.472C94.6545 16.376 95.0865 16.536 95.4705 16.952C95.8865 17.368 96.2065 17.912 96.4305 18.584C96.6865 19.256 96.8305 19.96 96.8625 20.696C96.8945 21.4 96.8145 22.024 96.6225 22.568C96.4305 23.112 96.0785 23.432 95.5665 23.528C96.4945 23.944 96.9105 24.264 96.8145 24.488C96.7185 24.68 96.2065 24.568 95.2785 24.152C95.2785 24.568 95.0065 24.888 94.4625 25.112C93.9505 25.304 93.3585 25.4 92.6865 25.4C92.0145 25.4 91.4065 25.304 90.8625 25.112C90.3505 24.888 90.0945 24.568 90.0945 24.152C90.0945 24.696 89.8545 25.112 89.3745 25.4C88.8945 25.656 88.3345 25.8 87.6945 25.832C87.0865 25.832 86.5425 25.704 86.0625 25.448C85.5825 25.16 85.3425 24.76 85.3425 24.248C85.3745 24.792 85.1025 25.24 84.5265 25.592C83.9825 25.912 83.3585 26.104 82.6545 26.168C82.9745 26.552 83.2305 26.968 83.4225 27.416C83.6465 27.832 83.7905 28.216 83.8545 28.568C84.1745 28.216 84.6545 27.912 85.2945 27.656C85.9345 27.4 86.5905 27.24 87.2625 27.176C87.9345 27.112 88.5265 27.16 89.0385 27.32C89.5825 27.448 89.9025 27.736 89.9985 28.184C89.9985 27.64 90.2065 27.224 90.6225 26.936C91.0705 26.648 91.5825 26.504 92.1585 26.504C92.7345 26.504 93.2305 26.648 93.6465 26.936C94.0945 27.224 94.3185 27.64 94.3185 28.184C94.9585 28.312 95.3425 28.584 95.4705 29C95.5985 29.384 95.5185 29.736 95.2305 30.056C94.9425 30.344 94.4945 30.424 93.8865 30.296C94.1745 30.712 94.2225 31.144 94.0305 31.592C93.8385 32.008 93.5185 32.376 93.0705 32.696C92.6545 32.984 92.2065 33.144 91.7265 33.176C91.2785 33.208 90.9105 33.032 90.6225 32.648C90.8145 33.256 90.7185 33.784 90.3345 34.232C89.9825 34.68 89.5025 35 88.8945 35.192C88.2865 35.384 87.6945 35.384 87.1185 35.192C86.5745 35.032 86.2065 34.648 86.0145 34.04C86.0785 34.904 85.8385 35.496 85.2945 35.816C84.7825 36.136 84.0785 36.152 83.1825 35.864C82.3185 35.608 81.4065 35.032 80.4465 34.136ZM82.4145 20.552C82.4145 19.912 82.5905 19.56 82.9425 19.496C83.2945 19.4 83.5345 19.592 83.6625 20.072C83.7585 19.784 83.9505 19.512 84.2385 19.256C84.5265 19 84.8305 18.824 85.1505 18.728C84.7665 18.44 84.4465 18.024 84.1905 17.48C83.9345 16.936 83.8545 16.456 83.9505 16.04C83.6625 16.2 83.3105 16.296 82.8945 16.328C82.5105 16.36 82.1745 16.312 81.8865 16.184C81.9825 16.536 81.9665 16.952 81.8385 17.432C81.7105 17.912 81.5025 18.344 81.2145 18.728C80.9585 19.112 80.6545 19.32 80.3025 19.352C80.7185 19.448 81.0225 19.672 81.2145 20.024C81.4385 20.376 81.8385 20.552 82.4145 20.552Z" fill="#00D649"/>
<path d="M130.384 18.152C129.872 18.152 129.424 18.344 129.04 18.728C128.688 19.112 128.512 19.688 128.512 20.456V33.704C128.512 34.056 128.384 34.36 128.128 34.616C127.872 34.872 127.568 35 127.216 35H118.768C118.416 35 118.112 34.872 117.856 34.616C117.6 34.36 117.472 34.056 117.472 33.704V20.792C117.472 19.032 116.832 18.152 115.552 18.152C115.008 18.152 114.544 18.36 114.16 18.776C113.808 19.16 113.632 19.704 113.632 20.408V33.704C113.632 34.056 113.504 34.36 113.248 34.616C112.992 34.872 112.688 35 112.336 35H103.696C103.344 35 103.04 34.872 102.784 34.616C102.528 34.36 102.4 34.056 102.4 33.704V11.336C102.4 10.984 102.528 10.68 102.784 10.424C103.04 10.168 103.344 10.04 103.696 10.04H111.616C111.968 10.04 112.272 10.168 112.528 10.424C112.784 10.68 112.912 10.984 112.912 11.336V12.92C113.552 12.088 114.464 11.336 115.648 10.664C116.96 9.928 118.432 9.56 120.064 9.56C123.584 9.56 125.952 10.872 127.168 13.496C127.936 12.376 128.992 11.448 130.336 10.712C131.68 9.944 133.072 9.56 134.512 9.56C137.104 9.56 139.216 10.472 140.848 12.296C142.512 14.12 143.344 16.84 143.344 20.456V33.704C143.344 34.056 143.216 34.36 142.96 34.616C142.704 34.872 142.4 35 142.048 35H133.6C133.248 35 132.944 34.872 132.688 34.616C132.432 34.36 132.304 34.056 132.304 33.704V20.792C132.304 19.032 131.664 18.152 130.384 18.152Z" fill="black"/>
<path d="M147.436 10.04H155.548C156.284 10.04 156.796 10.424 157.084 11.192L161.02 22.136L165.1 11.192C165.42 10.424 165.964 10.04 166.732 10.04H174.748C175.036 10.04 175.292 10.152 175.516 10.376C175.74 10.568 175.852 10.776 175.852 11C175.852 11.224 175.836 11.4 175.804 11.528L162.268 42.968C161.948 43.736 161.388 44.12 160.588 44.12H152.716C152.428 44.12 152.172 44.024 151.948 43.832C151.756 43.64 151.66 43.4 151.66 43.112C151.66 42.856 151.676 42.696 151.708 42.632L155.548 33.416L146.284 11.528C146.252 11.432 146.236 11.32 146.236 11.192C146.364 10.424 146.764 10.04 147.436 10.04Z" fill="black"/>
</svg>
